<?xml version="1.0" standalone="no"?>
<!DOCTYPE svg PUBLIC "-//W3C//DTD SVG 20010904//EN"
 "http://www.w3.org/TR/2001/REC-SVG-20010904/DTD/svg10.dtd">
<svg version="1.0" xmlns="http://www.w3.org/2000/svg"
 width="260.000000pt" height="260.000000pt" viewBox="0 0 260.000000 260.000000"
 preserveAspectRatio="xMidYMid meet">
<metadata>
Created by potrace 1.14, written by Peter Selinger 2001-2017
</metadata>
<g transform="translate(0.000000,260.000000) scale(0.100000,-0.100000)"
fill="#000000" stroke="none">
<path d="M1745 2541 c-45 -21 -111 -81 -170 -156 -22 -27 -42 -52 -45 -55 -5
-5 -215 -288 -232 -314 -8 -11 -14 -5 -93 90 -22 27 -68 77 -102 112 -98 99
-234 151 -305 115 -81 -40 -130 -159 -123 -300 3 -62 3 -63 -23 -63 -15 0 -52
-7 -82 -15 -31 -8 -99 -15 -156 -15 -121 0 -126 -4 -126 -90 0 -50 -5 -67 -34
-112 -45 -69 -44 -78 7 -110 26 -17 26 -17 26 -147 -1 -79 3 -135 9 -141 6 -6
24 -13 40 -16 16 -3 34 -10 39 -15 6 -6 11 -223 13 -599 l2 -590 23 -13 c18
-11 92 -14 377 -12 l355 1 28 -23 c16 -13 36 -24 45 -24 133 -10 202 -1 237
31 18 16 49 17 377 17 270 0 362 4 373 13 13 11 15 94 17 609 l3 596 35 3 c71
7 70 3 70 311 0 152 -4 283 -10 291 -7 11 -46 14 -212 16 -249 2 -240 1 -201
20 50 25 130 111 160 172 24 48 28 69 27 137 0 66 -5 89 -26 131 -32 61 -83
108 -152 140 -61 28 -117 30 -171 5z m176 -154 c12 -46 2 -142 -21 -190 -48
-103 -141 -173 -293 -223 -130 -42 -132 -34 -30 99 49 63 99 130 113 148 46
64 190 200 207 197 9 -2 20 -16 24 -31z m-912 -228 c30 -35 69 -82 87 -104 35
-42 41 -55 24 -55 -5 0 -10 4 -10 9 0 5 -12 11 -26 14 -28 5 -64 -21 -64 -47
0 -9 -11 -12 -37 -10 -77 8 -116 14 -122 20 -3 3 -5 29 -5 58 2 77 58 193 88
183 6 -2 35 -33 65 -68z"/>
<path d="M176 2125 c-14 -15 -14 -20 8 -63 35 -69 58 -94 79 -87 24 10 21 27
-13 89 -40 71 -53 81 -74 61z"/>
<path d="M2385 2114 c-8 -13 -27 -44 -41 -70 -23 -41 -24 -48 -11 -62 9 -8 22
-12 29 -9 16 6 78 117 78 140 0 26 -38 27 -55 1z"/>
<path d="M25 2093 c-7 -19 1 -27 99 -108 53 -44 90 -52 93 -20 2 14 -20 38
-75 83 -79 64 -105 74 -117 45z"/>
<path d="M2458 2044 c-66 -57 -76 -69 -67 -85 5 -11 16 -19 23 -19 8 0 48 28
90 63 52 43 75 68 73 82 -4 39 -40 26 -119 -41z"/>
<path d="M11 1936 c-19 -23 11 -43 86 -56 61 -10 69 -10 80 6 19 26 1 39 -71
53 -75 14 -81 14 -95 -3z"/>
<path d="M2483 1937 c-52 -10 -67 -24 -56 -52 4 -12 15 -14 42 -10 20 3 53 8
73 12 43 6 61 23 52 47 -7 18 -31 19 -111 3z"/>
</g>
</svg>
