<svg width="2759" height="1520" viewBox="0 0 2759 1520" fill="none" xmlns="http://www.w3.org/2000/svg">
<rect x="252.463" y="1126.7" width="974.124" height="387.302" fill="#F3DE91"/>
<path d="M2288.73 645.504H2153.77C2160.84 522.69 2176.77 483.095 2230.05 475.326C2282.65 490.937 2294.96 530.263 2288.73 645.504Z" fill="#F3DE91"/>
<g filter="url(#filter0_d_219_324)">
<path d="M373.395 255.727C399.873 255.727 420.435 261.642 435.082 273.472C450.292 285.303 457.898 302.485 457.898 325.019C457.898 347.553 450.292 364.735 435.082 376.565C420.435 388.395 399.873 394.311 373.395 394.311C346.918 394.311 326.074 388.395 310.864 376.565C296.216 364.735 288.893 347.553 288.893 325.019C288.893 302.485 296.216 285.303 310.864 273.472C326.074 261.642 346.918 255.727 373.395 255.727ZM447.757 466.983V835.413C447.757 859.073 451.419 875.129 458.743 883.579C466.629 892.029 479.868 896.255 498.459 896.255V914C487.192 913.437 470.573 912.873 448.602 912.31C426.632 911.183 404.379 910.62 381.845 910.62C359.312 910.62 336.214 911.183 312.554 912.31C289.456 912.873 271.992 913.437 260.162 914V896.255C278.753 896.255 291.71 892.029 299.033 883.579C306.92 875.129 310.864 859.073 310.864 835.413V568.385C310.864 543.035 307.202 524.444 299.878 512.614C292.555 500.22 279.316 494.023 260.162 494.023V476.278C278.189 477.968 295.653 478.813 312.554 478.813C337.904 478.813 361.847 477.968 384.381 476.278C407.478 474.025 428.603 470.926 447.757 466.983ZM761.466 304.738C796.393 304.738 823.434 308.4 842.588 315.723C861.742 322.484 878.079 329.807 891.599 337.694C898.359 341.638 903.711 344.736 907.655 346.989C912.161 348.679 916.387 349.524 920.33 349.524C925.963 349.524 929.907 346.426 932.16 340.229C934.977 334.032 937.23 324.737 938.92 312.343H958.356C957.793 323.61 956.948 336.849 955.821 352.059C955.258 367.27 954.694 387.55 954.131 412.901C954.131 437.688 954.131 470.644 954.131 511.769H934.695C932.442 481.348 925.4 452.054 913.57 423.886C901.739 395.719 885.402 372.34 864.558 353.75C844.278 335.159 819.209 325.864 789.351 325.864C763.437 325.864 742.03 333.187 725.13 347.834C708.229 361.918 699.779 382.199 699.779 408.676C699.779 430.083 705.131 448.674 715.834 464.448C726.538 479.658 742.593 495.15 764.001 510.924C785.971 526.698 813.575 546.133 846.813 569.23C873.29 586.694 896.951 604.158 917.795 621.622C938.639 639.086 955.258 658.803 967.651 680.774C980.608 702.744 987.087 729.222 987.087 760.206C987.087 797.387 976.947 828.371 956.666 853.158C936.385 877.382 909.626 895.691 876.389 908.085C843.151 919.915 806.815 925.83 767.381 925.83C730.763 925.83 701.469 922.45 679.498 915.69C658.091 908.93 639.782 901.888 624.572 894.564C612.178 886.678 602.601 882.734 595.841 882.734C590.208 882.734 585.982 885.833 583.166 892.029C580.912 898.226 578.941 907.521 577.25 919.915H557.815C558.942 905.831 559.505 889.494 559.505 870.904C560.068 851.75 560.35 827.244 560.35 797.387C560.913 767.529 561.195 729.503 561.195 683.309H580.631C582.884 721.616 589.081 757.389 599.221 790.627C609.925 823.864 625.98 850.905 647.387 871.749C669.358 892.029 698.371 902.17 734.425 902.17C754.705 902.17 772.451 898.79 787.661 892.029C802.872 885.269 814.984 875.411 823.997 862.454C833.011 848.933 837.518 832.596 837.518 813.442C837.518 789.782 832.166 769.219 821.462 751.756C810.759 734.292 796.112 717.955 777.521 702.744C758.931 686.97 737.242 671.197 712.454 655.423C685.977 637.959 661.189 620.214 638.092 602.186C614.995 584.159 596.404 564.16 582.321 542.19C568.8 519.656 562.04 492.615 562.04 461.067C562.04 425.013 571.335 395.437 589.926 372.34C608.516 349.243 633.022 332.342 663.443 321.639C694.427 310.372 727.101 304.738 761.466 304.738ZM1221.71 338.539V476.278H1312.98V493.178H1221.71V838.793C1221.71 852.877 1224.25 863.017 1229.32 869.214C1234.39 874.847 1241.99 877.664 1252.13 877.664C1260.58 877.664 1269.32 874.847 1278.33 869.214C1287.91 863.58 1296.64 854.003 1304.53 840.483L1318.05 848.933C1307.34 872.031 1292.41 890.621 1273.26 904.705C1254.67 918.788 1230.16 925.83 1199.74 925.83C1181.15 925.83 1164.53 923.295 1149.89 918.225C1135.8 913.718 1123.97 906.676 1114.39 897.1C1102 884.706 1093.83 869.495 1089.89 851.468C1086.51 832.878 1084.82 808.935 1084.82 779.641V493.178H1017.22V476.278H1084.82V370.65C1111.3 370.65 1135.52 368.115 1157.49 363.045C1180.03 357.975 1201.43 349.806 1221.71 338.539ZM1753.73 476.278V494.023C1743.02 497.403 1732.6 504.445 1722.46 515.149C1712.88 525.853 1703.59 544.443 1694.58 570.921L1582.19 895.409L1545.01 973.997L1351.5 541.345C1341.92 519.937 1332.62 506.699 1323.61 501.629C1314.6 496.558 1306.99 494.023 1300.8 494.023V476.278C1321.64 477.968 1343.05 479.376 1365.02 480.503C1386.99 481.066 1407.83 481.348 1427.55 481.348C1452.34 481.348 1474.31 480.785 1493.46 479.658C1512.61 478.531 1530.64 477.405 1547.54 476.278V494.023C1536.84 494.023 1526.7 494.587 1517.12 495.713C1507.54 496.84 1500.78 500.22 1496.84 505.854C1493.46 510.924 1494.59 520.219 1500.22 533.739L1607.54 790.627L1599.09 796.542L1650.63 646.973C1662.47 612.608 1667.54 584.441 1665.85 562.47C1664.16 540.5 1657.68 523.881 1646.41 512.614C1635.14 501.347 1620.78 495.15 1603.31 494.023V476.278C1611.76 476.841 1621.06 477.405 1631.2 477.968C1641.9 478.531 1652.32 479.095 1662.47 479.658C1672.61 479.658 1681.34 479.658 1688.66 479.658C1699.36 479.658 1711.19 479.376 1724.15 478.813C1737.11 478.25 1746.97 477.405 1753.73 476.278ZM1582.19 895.409L1548.39 991.742C1543.32 1005.83 1537.68 1017.94 1531.49 1028.08C1525.85 1038.22 1519.09 1046.39 1511.21 1052.58C1503.32 1058.78 1493.18 1063.57 1480.79 1066.95C1468.95 1070.89 1453.74 1072.86 1435.15 1072.86C1420.51 1072.86 1405.01 1070.33 1388.68 1065.26C1372.9 1060.75 1359.38 1053.15 1348.12 1042.44C1337.41 1031.74 1332.06 1017.37 1332.06 999.347C1332.06 980.757 1338.82 965.828 1352.34 954.561C1365.86 943.857 1384.17 938.506 1407.27 938.506C1428.11 938.506 1444.73 943.294 1457.12 952.871C1470.08 962.448 1476.56 976.813 1476.56 995.967C1476.56 1007.8 1472.62 1019.35 1464.73 1030.61C1456.84 1041.88 1444.45 1050.33 1427.55 1055.96C1431.49 1056.53 1435.72 1056.81 1440.22 1056.81C1445.29 1057.37 1449.24 1057.65 1452.05 1057.65C1469.52 1057.65 1485.01 1052.02 1498.53 1040.75C1512.05 1030.05 1522.75 1013.15 1530.64 990.052L1560.22 900.48L1582.19 895.409ZM1936.37 253.192V835.413C1936.37 859.073 1940.03 875.129 1947.36 883.579C1955.24 892.029 1968.48 896.255 1987.07 896.255V914C1976.37 913.437 1960.03 912.873 1938.06 912.31C1916.09 911.183 1893.56 910.62 1870.46 910.62C1847.93 910.62 1824.83 911.183 1801.17 912.31C1778.07 912.873 1760.61 913.437 1748.78 914V896.255C1767.37 896.255 1780.32 892.029 1787.65 883.579C1795.53 875.129 1799.48 859.073 1799.48 835.413V353.75C1799.48 328.962 1795.82 310.653 1788.49 298.823C1781.73 286.429 1768.49 280.232 1748.78 280.232V262.487C1766.8 264.177 1784.27 265.022 1801.17 265.022C1827.08 265.022 1851.31 264.177 1873.84 262.487C1896.37 260.234 1917.22 257.135 1936.37 253.192ZM2235.97 464.448C2285.55 464.448 2324.42 479.095 2352.59 508.389C2380.75 537.683 2394.84 585.849 2394.84 652.888H2123.58L2122.74 636.832H2279.91C2281.04 609.228 2279.91 583.878 2276.53 560.78C2273.15 537.12 2267.52 518.247 2259.63 504.164C2252.31 490.08 2242.45 483.038 2230.06 483.038C2213.16 483.038 2198.79 495.15 2186.96 519.374C2175.13 543.598 2167.81 584.723 2164.99 642.748L2168.37 648.663C2167.24 654.86 2166.68 661.338 2166.68 668.098C2166.68 674.295 2166.68 681.055 2166.68 688.379C2166.68 727.25 2171.75 758.234 2181.89 781.331C2192.59 804.429 2205.83 820.766 2221.61 830.343C2237.38 839.92 2253.72 844.708 2270.62 844.708C2280.19 844.708 2290.9 843.3 2302.73 840.483C2314.56 837.666 2326.95 831.751 2339.91 822.737C2352.87 813.724 2365.26 800.485 2377.09 783.021L2391.46 788.092C2385.26 810.062 2374.56 831.751 2359.35 853.158C2344.7 874.002 2325.83 891.466 2302.73 905.55C2279.63 919.07 2251.75 925.83 2219.07 925.83C2181.89 925.83 2148.65 918.225 2119.36 903.015C2090.06 887.241 2066.69 862.735 2049.22 829.498C2032.32 795.697 2023.87 751.756 2023.87 697.674C2023.87 644.156 2033.17 600.215 2051.76 565.85C2070.35 531.486 2095.7 506.135 2127.81 489.798C2159.92 472.898 2195.97 464.448 2235.97 464.448Z" fill="black"/>
</g>
<path d="M369.08 1259.81H329.364V1401.49H316.688V1259.81H293.591V1248.54H316.688V1237.84C316.688 1221.87 320.726 1210.04 328.8 1202.34C336.875 1194.46 350.114 1190.51 368.516 1190.51V1201.78C353.869 1201.78 343.635 1204.6 337.814 1210.23C332.18 1215.86 329.364 1225.07 329.364 1237.84V1248.54H369.08V1259.81ZM376.76 1324.87C376.76 1309.1 379.858 1295.3 386.055 1283.47C392.44 1271.64 401.172 1262.53 412.251 1256.14C423.518 1249.76 436.287 1246.57 450.558 1246.57C466.708 1246.57 480.416 1250.51 491.683 1258.4C502.95 1266.28 510.837 1276.33 515.344 1288.54V1248.54H528.019V1401.49H515.344V1361.21C510.837 1373.6 502.856 1383.84 491.401 1391.91C480.134 1399.8 466.52 1403.74 450.558 1403.74C436.287 1403.74 423.518 1400.55 412.251 1394.16C401.172 1387.59 392.44 1378.39 386.055 1366.56C379.858 1354.54 376.76 1340.65 376.76 1324.87ZM515.344 1324.87C515.344 1311.54 512.527 1299.8 506.893 1289.66C501.448 1279.34 493.936 1271.45 484.359 1266C474.782 1260.37 464.079 1257.55 452.248 1257.55C439.855 1257.55 428.963 1260.28 419.574 1265.72C410.185 1270.98 402.862 1278.68 397.604 1288.82C392.346 1298.96 389.717 1310.98 389.717 1324.87C389.717 1338.77 392.346 1350.79 397.604 1360.93C402.862 1371.07 410.185 1378.86 419.574 1384.31C429.151 1389.75 440.043 1392.47 452.248 1392.47C464.079 1392.47 474.782 1389.75 484.359 1384.31C494.124 1378.67 501.729 1370.79 507.175 1360.65C512.621 1350.32 515.344 1338.39 515.344 1324.87ZM608.254 1403.74C591.166 1403.74 577.176 1399.99 566.285 1392.47C555.581 1384.96 549.572 1374.26 548.258 1360.36H561.215C562.154 1370.32 566.66 1378.2 574.735 1384.02C582.997 1389.85 594.171 1392.76 608.254 1392.76C619.897 1392.76 629.098 1389.85 635.858 1384.02C642.806 1378.02 646.28 1370.69 646.28 1362.05C646.28 1356.04 644.403 1351.16 640.647 1347.41C637.079 1343.46 632.572 1340.46 627.126 1338.39C621.681 1336.33 614.263 1334.07 604.874 1331.63C593.607 1328.63 584.5 1325.72 577.552 1322.9C570.604 1319.9 564.689 1315.48 559.806 1309.66C554.924 1303.84 552.483 1296.05 552.483 1286.28C552.483 1279.15 554.642 1272.58 558.961 1266.57C563.28 1260.37 569.289 1255.49 576.988 1251.92C584.688 1248.35 593.419 1246.57 603.184 1246.57C619.146 1246.57 632.009 1250.6 641.774 1258.68C651.726 1266.57 657.078 1277.55 657.829 1291.64H645.154C644.59 1281.49 640.647 1273.23 633.323 1266.85C626 1260.46 615.86 1257.27 602.902 1257.27C592.011 1257.27 582.997 1260.09 575.862 1265.72C568.726 1271.35 565.158 1278.21 565.158 1286.28C565.158 1293.42 567.13 1299.24 571.073 1303.75C575.204 1308.07 580.181 1311.45 586.002 1313.89C592.011 1316.14 599.898 1318.58 609.663 1321.21C620.366 1324.03 628.91 1326.84 635.295 1329.66C641.867 1332.29 647.407 1336.23 651.914 1341.49C656.421 1346.56 658.674 1353.42 658.674 1362.05C658.674 1369.94 656.515 1377.08 652.196 1383.46C647.877 1389.85 641.867 1394.82 634.168 1398.39C626.469 1401.96 617.831 1403.74 608.254 1403.74ZM749.675 1245.44C767.702 1245.44 782.443 1251.07 793.898 1262.34C805.352 1273.42 811.08 1289.95 811.08 1311.92V1401.49H798.686V1312.76C798.686 1294.55 794.085 1280.65 784.884 1271.07C775.683 1261.31 763.195 1256.43 747.421 1256.43C730.896 1256.43 717.658 1261.68 707.705 1272.2C697.94 1282.72 693.058 1298.3 693.058 1318.96V1401.49H680.383V1193.05H693.058V1280.93C697.377 1269.48 704.607 1260.74 714.747 1254.74C724.887 1248.54 736.53 1245.44 749.675 1245.44ZM845.457 1214.46C842.453 1214.46 839.918 1213.52 837.852 1211.64C835.786 1209.57 834.754 1206.85 834.754 1203.47C834.754 1200.28 835.786 1197.65 837.852 1195.58C839.918 1193.52 842.453 1192.49 845.457 1192.49C848.462 1192.49 850.997 1193.52 853.062 1195.58C855.128 1197.65 856.161 1200.28 856.161 1203.47C856.161 1206.85 855.128 1209.57 853.062 1211.64C850.997 1213.52 848.462 1214.46 845.457 1214.46ZM851.654 1248.54V1401.49H838.979V1248.54H851.654ZM948.539 1403.74C934.268 1403.74 921.404 1400.55 909.95 1394.16C898.495 1387.78 889.481 1378.67 882.909 1366.84C876.524 1354.82 873.332 1340.83 873.332 1324.87C873.332 1309.1 876.618 1295.3 883.191 1283.47C889.763 1271.45 898.777 1262.34 910.231 1256.14C921.874 1249.76 934.831 1246.57 949.102 1246.57C963.374 1246.57 976.237 1249.76 987.692 1256.14C999.147 1262.34 1008.07 1271.35 1014.45 1283.19C1021.02 1295.02 1024.31 1308.91 1024.31 1324.87C1024.31 1340.83 1021.02 1354.82 1014.45 1366.84C1007.88 1378.67 998.771 1387.78 987.128 1394.16C975.674 1400.55 962.811 1403.74 948.539 1403.74ZM948.539 1392.47C959.618 1392.47 969.946 1390.03 979.523 1385.15C989.288 1380.08 997.081 1372.48 1002.9 1362.34C1008.72 1352.2 1011.63 1339.71 1011.63 1324.87C1011.63 1310.23 1008.72 1297.83 1002.9 1287.69C997.081 1277.55 989.382 1270.04 979.805 1265.16C970.228 1260.09 959.9 1257.55 948.821 1257.55C937.742 1257.55 927.413 1260.09 917.837 1265.16C908.447 1270.04 900.842 1277.55 895.021 1287.69C889.2 1297.83 886.289 1310.23 886.289 1324.87C886.289 1339.71 889.106 1352.2 894.739 1362.34C900.56 1372.48 908.166 1380.08 917.555 1385.15C927.132 1390.03 937.46 1392.47 948.539 1392.47ZM1114.88 1245.44C1133.09 1245.44 1147.93 1251.07 1159.38 1262.34C1170.84 1273.42 1176.56 1289.95 1176.56 1311.92V1401.49H1164.17V1312.76C1164.17 1294.55 1159.57 1280.65 1150.37 1271.07C1141.17 1261.31 1128.68 1256.43 1112.9 1256.43C1096.38 1256.43 1083.14 1261.68 1073.19 1272.2C1063.42 1282.72 1058.54 1298.3 1058.54 1318.96V1401.49H1045.87V1248.54H1058.54V1280.93C1062.86 1269.48 1070 1260.74 1079.95 1254.74C1090.09 1248.54 1101.73 1245.44 1114.88 1245.44ZM1318.04 1403.74C1300.95 1403.74 1286.96 1399.99 1276.07 1392.47C1265.37 1384.96 1259.36 1374.26 1258.04 1360.36H1271C1271.94 1370.32 1276.45 1378.2 1284.52 1384.02C1292.78 1389.85 1303.96 1392.76 1318.04 1392.76C1329.68 1392.76 1338.88 1389.85 1345.64 1384.02C1352.59 1378.02 1356.07 1370.69 1356.07 1362.05C1356.07 1356.04 1354.19 1351.16 1350.43 1347.41C1346.87 1343.46 1342.36 1340.46 1336.91 1338.39C1331.47 1336.33 1324.05 1334.07 1314.66 1331.63C1303.39 1328.63 1294.29 1325.72 1287.34 1322.9C1280.39 1319.9 1274.48 1315.48 1269.59 1309.66C1264.71 1303.84 1262.27 1296.05 1262.27 1286.28C1262.27 1279.15 1264.43 1272.58 1268.75 1266.57C1273.07 1260.37 1279.08 1255.49 1286.78 1251.92C1294.47 1248.35 1303.21 1246.57 1312.97 1246.57C1328.93 1246.57 1341.8 1250.6 1351.56 1258.68C1361.51 1266.57 1366.86 1277.55 1367.62 1291.64H1354.94C1354.38 1281.49 1350.43 1273.23 1343.11 1266.85C1335.79 1260.46 1325.65 1257.27 1312.69 1257.27C1301.8 1257.27 1292.78 1260.09 1285.65 1265.72C1278.51 1271.35 1274.94 1278.21 1274.94 1286.28C1274.94 1293.42 1276.92 1299.24 1280.86 1303.75C1284.99 1308.07 1289.97 1311.45 1295.79 1313.89C1301.8 1316.14 1309.68 1318.58 1319.45 1321.21C1330.15 1324.03 1338.7 1326.84 1345.08 1329.66C1351.65 1332.29 1357.19 1336.23 1361.7 1341.49C1366.21 1346.56 1368.46 1353.42 1368.46 1362.05C1368.46 1369.94 1366.3 1377.08 1361.98 1383.46C1357.66 1389.85 1351.65 1394.82 1343.95 1398.39C1336.26 1401.96 1327.62 1403.74 1318.04 1403.74ZM1409.04 1259.52V1360.65C1409.04 1371.91 1411.11 1379.71 1415.24 1384.02C1419.37 1388.16 1426.69 1390.22 1437.21 1390.22H1454.39V1401.49H1435.24C1421.9 1401.49 1412.05 1398.39 1405.66 1392.19C1399.46 1385.81 1396.37 1375.29 1396.37 1360.65V1259.52H1373.27V1248.54H1396.37V1209.67H1409.04V1248.54H1454.39V1259.52H1409.04ZM1538.24 1403.74C1523.97 1403.74 1511.11 1400.55 1499.65 1394.16C1488.2 1387.78 1479.18 1378.67 1472.61 1366.84C1466.23 1354.82 1463.03 1340.83 1463.03 1324.87C1463.03 1309.1 1466.32 1295.3 1472.89 1283.47C1479.46 1271.45 1488.48 1262.34 1499.93 1256.14C1511.57 1249.76 1524.53 1246.57 1538.8 1246.57C1553.07 1246.57 1565.94 1249.76 1577.39 1256.14C1588.85 1262.34 1597.77 1271.35 1604.15 1283.19C1610.72 1295.02 1614.01 1308.91 1614.01 1324.87C1614.01 1340.83 1610.72 1354.82 1604.15 1366.84C1597.58 1378.67 1588.47 1387.78 1576.83 1394.16C1565.37 1400.55 1552.51 1403.74 1538.24 1403.74ZM1538.24 1392.47C1549.32 1392.47 1559.65 1390.03 1569.22 1385.15C1578.99 1380.08 1586.78 1372.48 1592.6 1362.34C1598.42 1352.2 1601.33 1339.71 1601.33 1324.87C1601.33 1310.23 1598.42 1297.83 1592.6 1287.69C1586.78 1277.55 1579.08 1270.04 1569.51 1265.16C1559.93 1260.09 1549.6 1257.55 1538.52 1257.55C1527.44 1257.55 1517.11 1260.09 1507.54 1265.16C1498.15 1270.04 1490.54 1277.55 1484.72 1287.69C1478.9 1297.83 1475.99 1310.23 1475.99 1324.87C1475.99 1339.71 1478.81 1352.2 1484.44 1362.34C1490.26 1372.48 1497.87 1380.08 1507.26 1385.15C1516.83 1390.03 1527.16 1392.47 1538.24 1392.47ZM1648.24 1280.09C1652 1268.82 1658.66 1260.28 1668.24 1254.45C1677.82 1248.45 1690.02 1245.44 1704.86 1245.44V1258.68H1700.63C1685.61 1258.68 1673.12 1263 1663.17 1271.64C1653.22 1280.09 1648.24 1293.98 1648.24 1313.32V1401.49H1635.57V1248.54H1648.24V1280.09ZM1854.88 1314.73C1854.88 1321.49 1854.69 1326.56 1854.32 1329.94H1722.21C1722.59 1343.65 1725.59 1355.2 1731.23 1364.59C1736.86 1373.98 1744.28 1381.02 1753.48 1385.71C1762.68 1390.41 1772.73 1392.76 1783.62 1392.76C1798.64 1392.76 1811.22 1389.09 1821.36 1381.77C1831.5 1374.26 1837.89 1364.12 1840.52 1351.35H1853.75C1850.75 1366.94 1843.05 1379.61 1830.66 1389.38C1818.26 1398.95 1802.58 1403.74 1783.62 1403.74C1769.35 1403.74 1756.58 1400.55 1745.31 1394.16C1734.04 1387.78 1725.22 1378.67 1718.83 1366.84C1712.45 1354.82 1709.26 1340.83 1709.26 1324.87C1709.26 1308.91 1712.35 1295.02 1718.55 1283.19C1724.94 1271.35 1733.76 1262.34 1745.03 1256.14C1756.3 1249.76 1769.16 1246.57 1783.62 1246.57C1798.26 1246.57 1810.94 1249.76 1821.64 1256.14C1832.54 1262.34 1840.8 1270.7 1846.43 1281.21C1852.06 1291.54 1854.88 1302.71 1854.88 1314.73ZM1842.21 1319.52C1842.77 1306 1840.33 1294.55 1834.88 1285.16C1829.62 1275.77 1822.4 1268.82 1813.19 1264.31C1803.99 1259.62 1794.04 1257.27 1783.34 1257.27C1772.63 1257.27 1762.68 1259.62 1753.48 1264.31C1744.47 1268.82 1737.05 1275.77 1731.23 1285.16C1725.59 1294.55 1722.59 1306 1722.21 1319.52H1842.21Z" fill="black"/>
<path d="M205.26 633.768H6V1514H2752.33V633.768H2501.08" stroke="black" stroke-width="11.7364" stroke-linecap="round"/>
<line x1="1968.92" y1="1335.02" x2="2467.72" y2="1335.02" stroke="black" stroke-width="5.86822" stroke-linecap="round"/>
<defs>
<filter id="filter0_d_219_324" x="213.216" y="253.192" width="2228.57" height="913.564" filterUnits="userSpaceOnUse" color-interpolation-filters="sRGB">
<feFlood flood-opacity="0" result="BackgroundImageFix"/>
<feColorMatrix in="SourceAlpha" type="matrix" values="0 0 0 0 0 0 0 0 0 0 0 0 0 0 0 0 0 0 127 0" result="hardAlpha"/>
<feOffset dy="46.9457"/>
<feGaussianBlur stdDeviation="23.4729"/>
<feComposite in2="hardAlpha" operator="out"/>
<feColorMatrix type="matrix" values="0 0 0 0 0 0 0 0 0 0 0 0 0 0 0 0 0 0 0.25 0"/>
<feBlend mode="normal" in2="BackgroundImageFix" result="effect1_dropShadow_219_324"/>
<feBlend mode="normal" in="SourceGraphic" in2="effect1_dropShadow_219_324" result="shape"/>
</filter>
</defs>
</svg>
